HIERARCHY
ROOT newVegas:Hips
{
	OFFSET 0.000000 96.479958 0.000000
	CHANNELS 6 Xposition Yposition Zposition Xrotation Yrotation Zrotation
	JOINT newVegas:Pelvis
	{
		OFFSET 0.000000 0.000000 0.000000
		CHANNELS 3 Xrotation Yrotation Zrotation
		JOINT newVegas:LeftUpLeg
		{
			OFFSET 18.735201 -5.666702 -4.541200
			CHANNELS 3 Xrotation Yrotation Zrotation
			JOINT newVegas:LeftLeg
			{
				OFFSET -0.021200 -31.938179 0.493100
				CHANNELS 3 Xrotation Yrotation Zrotation
				JOINT newVegas:LeftFoot
				{
					OFFSET 0.021200 -31.938179 -4.336299
					CHANNELS 3 Xrotation Yrotation Zrotation
					JOINT newVegas:LeftToeBase
					{
						OFFSET 0.943001 -26.722000 15.023500
						CHANNELS 3 Xrotation Yrotation Zrotation
						End Site
						{
							OFFSET 0.000000 30.670183 0.000000
						}
					}
				}
				JOINT newVegas:Left_PantLeg
				{
					OFFSET 0.663870 -9.044666 -1.108900
					CHANNELS 3 Xrotation Yrotation Zrotation
					End Site
					{
						OFFSET 1.415995 20.635357 0.000000
					}
				}
			}
		}
		JOINT newVegas:RightUpLeg
		{
			OFFSET -18.735201 -5.666702 -4.541200
			CHANNELS 3 Xrotation Yrotation Zrotation
			JOINT newVegas:RightLeg
			{
				OFFSET 0.018946 -31.938133 0.493100
				CHANNELS 3 Xrotation Yrotation Zrotation
				JOINT newVegas:RightFoot
				{
					OFFSET -0.018946 -31.938126 -4.336299
					CHANNELS 3 Xrotation Yrotation Zrotation
					JOINT newVegas:RightToeBase
					{
						OFFSET -0.943001 -26.722004 15.023500
						CHANNELS 3 Xrotation Yrotation Zrotation
						End Site
						{
							OFFSET 0.000000 30.670187 0.000000
						}
					}
				}
				JOINT newVegas:Right_PantLeg
				{
					OFFSET -0.661674 -9.044716 -1.108900
					CHANNELS 3 Xrotation Yrotation Zrotation
					End Site
					{
						OFFSET -1.415958 20.635269 0.000000
					}
				}
			}
		}
	}
	JOINT newVegas:Spine
	{
		OFFSET 0.000000 10.199997 -0.299500
		CHANNELS 3 Xrotation Yrotation Zrotation
		JOINT newVegas:Spine1
		{
			OFFSET 0.000000 11.900002 -1.516600
			CHANNELS 3 Xrotation Yrotation Zrotation
			JOINT newVegas:Spine2
			{
				OFFSET 0.000000 13.600006 -2.842500
				CHANNELS 3 Xrotation Yrotation Zrotation
				JOINT newVegas:Neck
				{
					OFFSET 0.000000 9.624100 -2.890100
					CHANNELS 3 Xrotation Yrotation Zrotation
					JOINT newVegas:Head
					{
						OFFSET 0.000000 14.068802 -1.351900
						CHANNELS 3 Xrotation Yrotation Zrotation
						JOINT newVegas:Hair_Back
						{
							OFFSET 0.000000 3.231903 -17.524799
							CHANNELS 3 Xrotation Yrotation Zrotation
							End Site
							{
								OFFSET 0.000000 19.849884 0.000000
							}
						}
						JOINT newVegas:Hair_Front
						{
							OFFSET 0.000000 31.260406 4.573800
							CHANNELS 3 Xrotation Yrotation Zrotation
							JOINT newVegas:Hair_Front1
							{
								OFFSET 0.000000 2.284103 11.993300
								CHANNELS 3 Xrotation Yrotation Zrotation
								JOINT newVegas:Hair_Front2
								{
									OFFSET 0.000000 2.284103 11.993300
									CHANNELS 3 Xrotation Yrotation Zrotation
									End Site
									{
										OFFSET 0.000000 12.208862 0.000000
									}
								}
							}
						}
						JOINT newVegas:Jowel
						{
							OFFSET 0.000000 -7.458206 6.864100
							CHANNELS 3 Xrotation Yrotation Zrotation
							End Site
							{
								OFFSET 0.000000 19.849884 0.000000
							}
						}
					}
				}
				JOINT newVegas:LeftShoulder
				{
					OFFSET 15.263000 10.923401 -0.547700
					CHANNELS 3 Xrotation Yrotation Zrotation
					JOINT newVegas:LeftArm
					{
						OFFSET 25.438599 -2.830597 -13.032500
						CHANNELS 3 Xrotation Yrotation Zrotation
						JOINT newVegas:LeftForeArm
						{
							OFFSET 29.960503 0.000000 0.000000
							CHANNELS 3 Xrotation Yrotation Zrotation
							JOINT newVegas:LeftHand
							{
								OFFSET 27.849251 0.000000 0.000000
								CHANNELS 3 Xrotation Yrotation Zrotation
								JOINT newVegas:LeftHandThumb1
								{
									OFFSET 4.487587 -3.305161 6.305391
									CHANNELS 3 Xrotation Yrotation Zrotation
									JOINT newVegas:LeftHandThumb2
									{
										OFFSET 5.480453 -3.164139 3.164143
										CHANNELS 3 Xrotation Yrotation Zrotation
										JOINT newVegas:LeftHandThumb3
										{
											OFFSET 5.159721 -2.978973 2.978967
											CHANNELS 3 Xrotation Yrotation Zrotation
											End Site
											{
												OFFSET 2.494507 5.926697 1.738678
											}
										}
									}
								}
								JOINT newVegas:LeftHandIndex1
								{
									OFFSET 18.578728 -0.527832 5.208049
									CHANNELS 3 Xrotation Yrotation Zrotation
									JOINT newVegas:LeftHandIndex2
									{
										OFFSET 3.192009 0.000000 0.000000
										CHANNELS 3 Xrotation Yrotation Zrotation
										JOINT newVegas:LeftHandIndex3
										{
											OFFSET 3.835129 0.000000 0.000000
											CHANNELS 3 Xrotation Yrotation Zrotation
											End Site
											{
												OFFSET -0.034599 3.816971 0.371180
											}
										}
									}
								}
								JOINT newVegas:LeftHandMiddle1
								{
									OFFSET 18.476105 0.000000 0.000000
									CHANNELS 3 Xrotation Yrotation Zrotation
									JOINT newVegas:LeftHandMiddle2
									{
										OFFSET 3.324875 0.000000 0.000000
										CHANNELS 3 Xrotation Yrotation Zrotation
										JOINT newVegas:LeftHandMiddle3
										{
											OFFSET 4.596550 0.000000 0.000000
											CHANNELS 3 Xrotation Yrotation Zrotation
											End Site
											{
												OFFSET 0.057701 4.578827 0.399218
											}
										}
									}
								}
								JOINT newVegas:LeftHandRing1
								{
									OFFSET 17.732719 0.121887 -4.201567
									CHANNELS 3 Xrotation Yrotation Zrotation
									JOINT newVegas:LeftHandRing2
									{
										OFFSET 2.733170 0.000000 0.000000
										CHANNELS 3 Xrotation Yrotation Zrotation
										JOINT newVegas:LeftHandRing3
										{
											OFFSET 3.178268 0.000000 0.000000
											CHANNELS 3 Xrotation Yrotation Zrotation
											End Site
											{
												OFFSET 0.119102 3.170624 0.185394
											}
										}
									}
								}
								JOINT newVegas:LeftHandPinky1
								{
									OFFSET 15.989624 -0.606689 -7.535461
									CHANNELS 3 Xrotation Yrotation Zrotation
									JOINT newVegas:LeftHandPinky2
									{
										OFFSET 2.538986 0.000000 0.000000
										CHANNELS 3 Xrotation Yrotation Zrotation
										JOINT newVegas:LeftHandPinky3
										{
											OFFSET 2.593102 0.000000 0.000000
											CHANNELS 3 Xrotation Yrotation Zrotation
											End Site
											{
												OFFSET -0.150902 2.584198 0.152708
											}
										}
									}
								}
							}
							JOINT newVegas:Left_Sleeve
							{
								OFFSET 0.267448 -0.649796 0.577675
								CHANNELS 3 Xrotation Yrotation Zrotation
								End Site
								{
									OFFSET 0.000000 15.991241 0.000000
								}
							}
							JOINT newVegas:Left_CapeC
							{
								OFFSET 15.715958 -8.608795 -6.935905
								CHANNELS 3 Xrotation Yrotation Zrotation
								JOINT newVegas:Left_CapeC1
								{
									OFFSET 0.000000 -8.688499 0.000000
									CHANNELS 3 Xrotation Yrotation Zrotation
									End Site
									{
										OFFSET 0.000000 8.688499 0.000000
									}
								}
							}
						}
						JOINT newVegas:Left_CapeB
						{
							OFFSET 26.118385 -8.608795 -7.079235
							CHANNELS 3 Xrotation Yrotation Zrotation
							JOINT newVegas:Left_CapeB1
							{
								OFFSET 0.000000 -8.688499 0.000000
								CHANNELS 3 Xrotation Yrotation Zrotation
								End Site
								{
									OFFSET 0.000000 8.688499 0.000000
								}
							}
						}
						JOINT newVegas:Left_CapeA
						{
							OFFSET 5.115639 -8.608795 -10.395809
							CHANNELS 3 Xrotation Yrotation Zrotation
							JOINT newVegas:Left_CapeA1
							{
								OFFSET 0.000000 -8.688499 0.000000
								CHANNELS 3 Xrotation Yrotation Zrotation
								End Site
								{
									OFFSET 0.000000 8.688499 0.000000
								}
							}
						}
					}
				}
				JOINT newVegas:RightShoulder
				{
					OFFSET -15.263000 10.923401 -0.547700
					CHANNELS 3 Xrotation Yrotation Zrotation
					JOINT newVegas:RightArm
					{
						OFFSET -25.438599 -2.830597 -13.032500
						CHANNELS 3 Xrotation Yrotation Zrotation
						JOINT newVegas:RightForeArm
						{
							OFFSET -29.960503 0.000000 0.000000
							CHANNELS 3 Xrotation Yrotation Zrotation
							JOINT newVegas:RightHand
							{
								OFFSET -27.849251 0.000000 0.000000
								CHANNELS 3 Xrotation Yrotation Zrotation
								JOINT newVegas:RightHandThumb1
								{
									OFFSET -4.487587 -3.305161 6.305391
									CHANNELS 3 Xrotation Yrotation Zrotation
									JOINT newVegas:RightHandThumb2
									{
										OFFSET -5.480453 -3.164139 3.164143
										CHANNELS 3 Xrotation Yrotation Zrotation
										JOINT newVegas:RightHandThumb3
										{
											OFFSET -5.159721 -2.978973 2.978967
											CHANNELS 3 Xrotation Yrotation Zrotation
											End Site
											{
												OFFSET -2.494507 5.926697 1.738678
											}
										}
									}
								}
								JOINT newVegas:RightHandIndex1
								{
									OFFSET -18.578728 -0.527832 5.208049
									CHANNELS 3 Xrotation Yrotation Zrotation
									JOINT newVegas:RightHandIndex2
									{
										OFFSET -3.192009 0.000000 0.000000
										CHANNELS 3 Xrotation Yrotation Zrotation
										JOINT newVegas:RightHandIndex3
										{
											OFFSET -3.835129 0.000000 0.000000
											CHANNELS 3 Xrotation Yrotation Zrotation
											End Site
											{
												OFFSET 0.034599 3.816971 0.371180
											}
										}
									}
								}
								JOINT newVegas:RightHandMiddle1
								{
									OFFSET -18.476105 0.000000 0.000000
									CHANNELS 3 Xrotation Yrotation Zrotation
									JOINT newVegas:RightHandMiddle2
									{
										OFFSET -3.324875 0.000000 0.000000
										CHANNELS 3 Xrotation Yrotation Zrotation
										JOINT newVegas:RightHandMiddle3
										{
											OFFSET -4.596550 0.000000 0.000000
											CHANNELS 3 Xrotation Yrotation Zrotation
											End Site
											{
												OFFSET -0.057701 4.578827 0.399218
											}
										}
									}
								}
								JOINT newVegas:RightHandRing1
								{
									OFFSET -17.732719 0.121887 -4.201567
									CHANNELS 3 Xrotation Yrotation Zrotation
									JOINT newVegas:RightHandRing2
									{
										OFFSET -2.733170 0.000000 0.000000
										CHANNELS 3 Xrotation Yrotation Zrotation
										JOINT newVegas:RightHandRing3
										{
											OFFSET -3.178268 0.000000 0.000000
											CHANNELS 3 Xrotation Yrotation Zrotation
											End Site
											{
												OFFSET -0.119102 3.170624 0.185394
											}
										}
									}
								}
								JOINT newVegas:RightHandPinky1
								{
									OFFSET -15.989624 -0.606689 -7.535461
									CHANNELS 3 Xrotation Yrotation Zrotation
									JOINT newVegas:RightHandPinky2
									{
										OFFSET -2.538986 0.000000 0.000000
										CHANNELS 3 Xrotation Yrotation Zrotation
										JOINT newVegas:RightHandPinky3
										{
											OFFSET -2.593102 0.000000 0.000000
											CHANNELS 3 Xrotation Yrotation Zrotation
											End Site
											{
												OFFSET 0.150902 2.584198 0.152708
											}
										}
									}
								}
							}
							JOINT newVegas:Right_CapeC
							{
								OFFSET -15.715958 -8.608795 -6.935905
								CHANNELS 3 Xrotation Yrotation Zrotation
								JOINT newVegas:Right_CapeC1
								{
									OFFSET 0.000000 -8.688499 0.000000
									CHANNELS 3 Xrotation Yrotation Zrotation
									End Site
									{
										OFFSET 0.000000 8.688499 0.000000
									}
								}
							}
							JOINT newVegas:Right_Sleeve
							{
								OFFSET -0.267448 -0.649994 0.577675
								CHANNELS 3 Xrotation Yrotation Zrotation
								End Site
								{
									OFFSET 0.000000 15.991302 0.000000
								}
							}
						}
						JOINT newVegas:Right_CapeA
						{
							OFFSET -5.115540 -8.608795 -10.395824
							CHANNELS 3 Xrotation Yrotation Zrotation
							JOINT newVegas:Right_CapeA1
							{
								OFFSET 0.000000 -8.688499 0.000000
								CHANNELS 3 Xrotation Yrotation Zrotation
								End Site
								{
									OFFSET 0.000000 8.688499 0.000000
								}
							}
						}
						JOINT newVegas:Right_CapeB
						{
							OFFSET -26.118187 -8.608795 -7.079266
							CHANNELS 3 Xrotation Yrotation Zrotation
							JOINT newVegas:Right_CapeB1
							{
								OFFSET 0.000000 -8.688499 0.000000
								CHANNELS 3 Xrotation Yrotation Zrotation
								End Site
								{
									OFFSET 0.000000 8.688499 0.000000
								}
							}
						}
					}
				}
				JOINT newVegas:Left_Collar
				{
					OFFSET 18.625099 8.655502 8.828100
					CHANNELS 3 Xrotation Yrotation Zrotation
					JOINT newVegas:Left_Collar1
					{
						OFFSET 14.783401 10.540405 -1.259500
						CHANNELS 3 Xrotation Yrotation Zrotation
						End Site
						{
							OFFSET 0.000000 18.199875 0.000000
						}
					}
				}
				JOINT newVegas:Collar_Back
				{
					OFFSET 0.000000 15.630707 -20.132601
					CHANNELS 3 Xrotation Yrotation Zrotation
					End Site
					{
						OFFSET 0.000000 22.523010 0.000000
					}
				}
				JOINT newVegas:Left_Peck
				{
					OFFSET 17.239599 -5.132599 25.482599
					CHANNELS 3 Xrotation Yrotation Zrotation
					End Site
					{
						OFFSET 0.000000 22.523010 0.000000
					}
				}
				JOINT newVegas:Right_Peck
				{
					OFFSET -17.239599 -5.132202 25.482599
					CHANNELS 3 Xrotation Yrotation Zrotation
					End Site
					{
						OFFSET 0.000000 22.523010 0.000000
					}
				}
				JOINT newVegas:Right_Collar
				{
					OFFSET -18.625099 8.655792 8.828100
					CHANNELS 3 Xrotation Yrotation Zrotation
					JOINT newVegas:Right_Collar1
					{
						OFFSET -14.783401 10.539993 -1.259500
						CHANNELS 3 Xrotation Yrotation Zrotation
						End Site
						{
							OFFSET 0.000000 18.199631 0.000000
						}
					}
				}
			}
		}
		JOINT newVegas:Belly
		{
			OFFSET 0.000000 -6.540398 9.014299
			CHANNELS 3 Xrotation Yrotation Zrotation
			End Site
			{
				OFFSET 0.000000 11.566666 0.000000
			}
		}
	}
	JOINT newVegas:ElvisFacialAnim_Joint
	{
		OFFSET 1.000000 -95.330101 -8.825800
		CHANNELS 3 Xrotation Yrotation Zrotation
		End Site
		{
			OFFSET 0.000000 35.315800 0.000000
		}
	}
}
MOTION
Frames: 4
Frame Time: 0.033333
-0.200197 55.205063 -10.255043 17.984301 -3.392938 -3.187134 0.000002 0.000000 0.000000 -108.881261 -17.159679 22.780904 121.629167 -7.719161 1.000650 -26.773360 1.037499 -4.506111 0.000000 -0.000001 -0.000000 -0.000001 -0.000002 0.000001 -108.242256 7.006087 -15.840090 115.095231 6.464723 -1.149896 -22.793448 -0.324285 4.527337 0.000000 0.000000 -0.000000 0.000001 0.000000 -0.000000 2.361326 0.615642 0.766715 2.930044 0.334371 0.656143 2.926587 0.321497 0.683320 -5.710807 0.121518 0.504208 -5.710724 0.121519 0.504206 0.000001 -0.000000 0.000000 -5.710808 0.121512 0.504209 -5.710833 0.121523 0.504207 0.000000 -0.000000 -0.000000 0.000001 -0.000000 -0.000000 -1.749757 -6.036592 -1.534019 -27.416173 -74.007982 0.649766 0.000002 -3.632133 -0.000000 -27.645524 -7.983322 -4.660979 0.699755 -6.020115 19.223929 15.918181 20.653242 2.508674 -0.000001 -0.000001 -0.000001 -0.723300 0.701220 -17.341470 0.753604 2.876228 -29.358766 -0.000002 -0.000002 0.000003 0.636424 4.890742 -23.832108 1.327950 3.715501 -39.323243 0.000001 -0.000001 -0.000000 0.769271 5.195466 -34.016364 0.966590 3.225181 -33.358760 0.000000 -0.000001 0.000002 1.608241 10.167773 -44.264940 0.580834 2.545154 -25.706646 -0.000000 0.000002 -0.000001 -0.000000 -0.000001 0.000000 -0.000000 -0.000001 0.000000 -0.000000 -0.000000 0.000000 0.000000 -0.000001 -0.000001 0.000000 -0.000001 -0.000001 0.000000 -0.000001 -0.000001 0.000000 -0.000001 -0.000001 0.258344 8.930145 -3.012958 -26.830260 71.128217 6.015630 0.000001 4.911082 -0.000001 -21.673739 7.630815 -2.007362 -13.495571 -11.552050 -5.371125 9.647425 -12.885319 -10.896962 0.000001 0.000002 0.000001 -0.004622 -1.532325 17.306455 0.624528 -2.331534 29.987041 -0.000000 -0.000002 0.000005 -2.447142 2.303854 24.373047 0.946008 -2.815579 37.137152 0.000001 0.000001 -0.000002 -4.294480 0.433406 43.742495 0.363885 -1.806382 22.776803 -0.000001 0.000001 0.000000 -7.407881 3.578464 44.464924 0.609145 -2.304687 29.606811 -0.000001 0.000003 -0.000000 0.000000 0.000000 0.000000 0.000000 0.000000 0.000000 0.000000 0.000000 -0.000000 0.000000 0.000001 -0.000000 0.000000 0.000001 -0.000000 0.000000 0.000001 -0.000000 0.000000 0.000001 -0.000000 0.000000 -0.000000 0.000000 0.000000 -0.000000 0.000000 0.000000 -0.000000 0.000000 0.000000 -0.000000 0.000000 0.000000 -0.000000 0.000000 0.000000 -0.000000 0.000000 0.000000 -0.000000 0.000000 0.000001 0.000001 0.000000 0.000002 0.000000 0.000000 
-0.108810 58.764252 -9.791628 17.936664 -3.291207 -3.087806 0.000000 0.000000 -0.000000 -102.016163 -14.170446 23.013098 115.824176 -6.459786 0.710863 -28.231187 1.138255 -4.649974 0.000000 -0.000000 -0.000000 0.000000 0.000001 -0.000000 -101.474338 5.540209 -15.856713 109.175677 5.953651 -0.814264 -23.782171 -0.448685 4.849842 0.000000 0.000001 -0.000000 0.000002 0.000000 -0.000001 2.166582 0.545929 0.686945 2.742035 0.298022 0.561777 2.738674 0.290056 0.585867 -5.629472 0.098563 0.649817 -5.629489 0.098564 0.649816 0.000000 0.000000 -0.000000 -5.629474 0.098564 0.649817 -5.629417 0.098562 0.649818 0.000000 0.000000 -0.000000 0.000000 0.000000 -0.000000 -1.400338 -6.497001 -2.293065 -30.956661 -72.191486 -6.436998 -0.000001 -4.572075 -0.000001 -26.018064 -7.937094 -5.067472 0.699752 -6.020118 19.223929 16.046826 20.937877 2.356369 0.000001 -0.000002 -0.000003 -0.664461 0.949011 -17.622004 0.755841 2.880177 -29.403046 0.000001 -0.000002 0.000000 0.697237 5.024887 -24.050985 1.330804 3.718947 -39.367137 -0.000000 0.000001 0.000001 0.873028 5.354674 -34.530513 0.969190 3.229175 -33.405489 -0.000000 -0.000001 -0.000001 1.796111 10.331278 -44.892457 0.584205 2.552103 -25.782173 -0.000001 -0.000005 0.000001 -0.000000 -0.000000 -0.000000 -0.000000 -0.000000 -0.000000 -0.000000 -0.000000 0.000000 -0.000002 0.000000 -0.000000 -0.000002 0.000000 0.000000 -0.000002 0.000000 -0.000000 -0.000002 -0.000000 -0.000000 0.643501 9.869535 -2.237412 -28.564551 69.359096 11.263974 0.000001 5.252482 -0.000001 -19.112145 7.190103 -1.252908 -13.495568 -11.552051 -5.371125 10.328840 -14.440007 -10.173905 -0.000000 -0.000002 -0.000001 0.002570 -1.682004 18.017882 0.627501 -2.336654 30.060007 0.000001 0.000002 -0.000001 -2.441262 2.172467 24.761758 0.946278 -2.815943 37.142644 0.000002 -0.000000 0.000001 -4.292409 0.343314 44.164307 0.360290 -1.797804 22.662484 0.000000 -0.000001 -0.000001 -7.465348 3.523056 44.825220 0.603518 -2.294745 29.466358 -0.000000 -0.000002 -0.000000 -0.000000 -0.000001 0.000000 0.000000 -0.000001 0.000000 -0.000000 -0.000001 0.000000 -0.000000 -0.000001 0.000001 -0.000000 -0.000001 0.000001 -0.000000 -0.000001 0.000001 -0.000000 -0.000001 0.000001 0.000003 0.000000 0.000000 0.000003 0.000000 0.000000 0.000003 0.000000 0.000000 0.000003 0.000000 0.000000 0.000003 0.000000 0.000000 0.000003 0.000000 0.000000 0.000003 0.000000 0.000000 0.000000 0.000000 -0.000000 0.000000 0.000000 -0.000000 
-0.006213 62.411964 -9.137732 17.386200 -3.141766 -2.923500 -0.000002 0.000000 -0.000000 -94.806687 -11.322468 23.108601 109.570865 -5.454150 0.363520 -29.072881 1.244960 -4.873343 -0.000000 0.000001 -0.000000 -0.000001 -0.000000 0.000000 -94.353374 4.310067 -15.855261 102.948511 5.532454 -0.433555 -24.289640 -0.572901 5.179216 -0.000000 -0.000001 -0.000000 -0.000002 -0.000000 -0.000002 1.998044 0.514821 0.606904 2.612211 0.316212 0.450726 2.608843 0.313812 0.473703 -5.521517 0.074796 0.737272 -5.521516 0.074797 0.737272 -0.000000 -0.000000 0.000000 -5.521517 0.074797 0.737272 -5.521522 0.074796 0.737272 -0.000000 -0.000000 -0.000000 -0.000000 -0.000000 0.000000 -0.846716 -7.740684 -3.310776 -32.798801 -69.388609 -12.206614 -0.000005 -5.659949 -0.000001 -23.634012 -7.786009 -5.213609 0.699757 -6.020119 19.223928 16.275099 21.429872 2.088852 0.000001 -0.000001 -0.000001 -0.624491 1.131176 -17.914237 0.760923 2.889195 -29.504467 0.000002 -0.000002 -0.000002 0.761751 5.161787 -24.423172 1.334924 3.724000 -39.430890 -0.000000 0.000000 0.000000 0.941240 5.458452 -35.078448 0.972453 3.234069 -33.462879 -0.000000 0.000003 0.000001 1.952823 10.444401 -45.558745 0.583681 2.551050 -25.770722 -0.000000 -0.000003 0.000002 -0.000001 0.000000 -0.000000 -0.000001 0.000000 -0.000000 -0.000001 0.000000 -0.000000 -0.000000 0.000000 -0.000000 -0.000001 0.000000 0.000001 -0.000000 0.000000 -0.000000 -0.000001 -0.000000 -0.000000 1.158098 11.047270 -1.647052 -29.569965 66.725682 16.293927 0.000001 5.521560 -0.000004 -16.553863 6.792157 -0.716556 -13.495573 -11.552052 -5.371130 10.942299 -15.757255 -9.527483 0.000002 -0.000002 0.000003 0.017917 -1.838872 18.514976 0.620177 -2.323942 29.880008 -0.000001 0.000000 -0.000001 -2.392425 2.016573 24.921344 0.944966 -2.814239 37.116372 0.000000 -0.000000 0.000000 -4.230398 0.247654 44.312147 0.357778 -1.791759 22.582301 0.000000 -0.000003 0.000001 -7.384947 3.387792 44.981341 0.598511 -2.285848 29.340799 0.000000 -0.000000 -0.000001 -0.000000 0.000000 0.000001 0.000000 -0.000000 0.000001 -0.000000 -0.000000 0.000001 0.000001 -0.000001 -0.000001 0.000000 -0.000001 -0.000001 0.000001 -0.000001 -0.000001 0.000000 -0.000001 -0.000001 -0.000002 0.000000 0.000000 -0.000002 0.000000 0.000000 -0.000002 0.000000 0.000000 -0.000002 0.000000 0.000000 -0.000002 0.000000 0.000000 -0.000002 0.000000 0.000000 -0.000002 0.000000 0.000000 -0.000000 0.000000 -0.000000 -0.000002 0.000000 -0.000000 
0.066770 66.019073 -8.343737 16.426432 -2.944023 -2.876586 -0.000001 0.000000 0.000000 -87.579308 -8.841087 23.195126 103.072356 -4.808283 -0.013011 -29.249787 1.352486 -5.157455 0.000000 0.000001 -0.000000 -0.000003 -0.000002 0.000000 -87.009882 3.037167 -15.868845 96.464442 5.223078 -0.028401 -24.350871 -0.683434 5.480522 0.000000 -0.000000 0.000000 0.000000 0.000000 -0.000001 1.840426 0.483527 0.555987 2.506553 0.331175 0.371645 2.503141 0.332926 0.393171 -5.412274 0.056781 0.752221 -5.412283 0.056781 0.752221 0.000000 -0.000000 -0.000000 -5.412277 0.056780 0.752221 -5.412211 0.056780 0.752221 -0.000000 0.000000 -0.000000 0.000000 -0.000000 0.000000 -0.212239 -9.515330 -4.440193 -33.625800 -65.652229 -17.451611 0.000009 -6.595264 0.000007 -20.825260 -7.524263 -5.042041 0.699755 -6.020117 19.223926 16.523430 21.952296 1.799289 0.000002 -0.000003 -0.000001 -0.544897 1.456113 -18.369177 0.771869 2.908411 -29.720472 0.000001 -0.000001 -0.000000 0.898657 5.445382 -24.963964 1.341037 3.731390 -39.524816 -0.000001 -0.000000 -0.000001 1.105580 5.692582 -35.673303 0.977512 3.241702 -33.552478 0.000000 0.000003 0.000001 2.151606 10.601963 -46.262159 0.590304 2.564689 -25.918930 0.000001 -0.000003 -0.000001 0.000001 0.000000 0.000001 0.000001 0.000000 0.000001 0.000001 0.000000 0.000001 0.000000 0.000001 0.000001 -0.000000 0.000000 0.000002 0.000000 0.000001 0.000001 0.000000 -0.000000 0.000002 1.725343 12.726400 -0.979886 -29.359732 63.294154 20.579731 0.000002 5.576957 0.000001 -13.989655 6.328642 -0.228047 -13.495571 -11.552050 -5.371128 11.319973 -16.513265 -9.139665 0.000000 -0.000003 -0.000001 0.036637 -1.975628 18.771925 0.612197 -2.310046 29.682588 0.000001 -0.000001 0.000004 -2.300327 1.819627 24.895911 0.943043 -2.811660 37.076753 0.000001 -0.000003 0.000002 -4.095655 0.126282 44.212163 0.354586 -1.784052 22.479833 0.000001 -0.000003 0.000000 -7.121404 3.124840 44.932338 0.593108 -2.276220 29.205223 -0.000000 0.000002 0.000000 -0.000000 -0.000001 -0.000000 -0.000000 -0.000000 0.000000 -0.000000 -0.000001 -0.000000 -0.000000 0.000000 -0.000001 0.000000 0.000000 -0.000001 -0.000000 0.000000 -0.000001 0.000000 -0.000000 -0.000001 0.000002 0.000000 -0.000000 0.000002 0.000000 -0.000000 0.000002 0.000000 -0.000000 0.000002 0.000000 -0.000000 0.000002 0.000000 -0.000000 0.000002 0.000000 -0.000000 0.000002 0.000000 -0.000000 0.000001 -0.000000 -0.000000 -0.000001 0.000000 0.000000 
